<?xml version="1.0" encoding="utf-8"?>
<?xml-stylesheet type="text/xsl" href="rss1.xsl"?>
<rss version="2.0" xmlns:atom="http://www.w3.org/2005/Atom" xmlns:content="http://purl.org/rss/1.0/modules/content/" xmlns:dc="http://purl.org/dc/elements/1.1/" xmlns:media="http://search.yahoo.com/mrss/">
<channel>
 <title>Getty</title>
 <link>http://www.gettyimg.com/</link>
 <atom:link href="http://www.gettyimg.com/" rel="self" type="application/rss+xml" />

 
                <item>
                <title><![CDATA[【HD Live Performances】WEB-RiP - Juliette Armanet - Imagine [Paris 2024 Olympics Opening Ceremony 26 July 2024] 4K HLG DD5.1 HEVC [azamusic]]]></title>
                <link><![CDATA[https://sharemania.us/threads/juliette-armanet-imagine-paris-2024-olympics-opening-ceremony-26-july-2024-4k-hlg-dd5-1-hevc-azamusic.251388/]]></link>
                <description><![CDATA[<article>
<blockquote class="messageText SelectQuoteContainer ugc baseHtml">
<span style="color: #5900b3"><b><span style="font-size: 15px">I've had a few requests to upload this so as with my previous post, I've merged Channel 9 Australia's broadcast DTV DD5.1 audio into it this 4K video to get the best possible audio.</span></b><br>
<br>
<b><span style="font-size: 15px">Please note this is using HLG BT.2020 10bit colour scheme!</span></b><br>
<br>
<b><span style="font-size: 15px">Video: HVC1 3840x2160 50fps [V: hevc main 10 L5.1, yuv420p10le, 3840x2160 [default]]</span></b><br>
<b><span style="font-size: 15px">Audio: Dolby AC3 48000Hz 6ch 384kbps [A: ac3, 48000 Hz, 5.1(side), 384 kb/s]</span></b></span><br>
<br>
<div class="ToggleTriggerAnchor bbCodeSpoilerContainer">
<button type="button" class="button bbCodeSpoilerButton ToggleTrigger Tooltip JsOnly" data-target="> .SpoilerTarget"><span>Spoiler: <span class="SpoilerTitle">Media Info</span></span></button>
<div class="SpoilerTarget bbCodeSpoilerText">General<br>
Unique ID : 60341992574708286319559282437487354477 (0x2D6571EE2A4972A64BE686E1A7E8626D)<br>
Complete name : \\192.168.1.1\data\aza\Olympic_Games_Paris_2024\Juliette Armanet - Imagine [Paris 2024 Olympics Opening Ceremony 26 July 2024] 4K HLG DD5.1 HEVC [azamusic].mkv<br>
Format : Matroska<br>
Format version : Version 4<br>
File size : 518 MiB<br>
Duration : 4 min 42 s<br>
Overall bit rate : 15.3 Mb/s<br>
Frame rate : 2 619.394 FPS<br>
Writing application : Lavf60.16.100<br>
Writing library : Lavf60.16.100<br>
ErrorDetectionType : Per level 1<br>
<br>
Video<br>
ID : 1<br>
Format : HEVC<br>
Format/Info : High Efficiency Video Coding<br>
Format profile : Main 10@L5.1@Main<br>
Codec ID : V_MPEGH/ISO/HEVC<br>
Duration : 4 min 42 s<br>
Bit rate : 14.8 Mb/s<br>
Width : 3 840 pixels<br>
Height : 2 160 pixels<br>
Display aspect ratio : 16:9<br>
Frame rate mode : Variable<br>
Frame rate : 2 619.394 FPS<br>
Original frame rate : 50.000 FPS<br>
Color space : YUV<br>
Chroma subsampling : 4:2:0<br>
Bit depth : 10 bits<br>
Bits/(Pixel*Frame) : 0.001<br>
Stream size : 25.6 GiB<br>
Default : Yes<br>
Forced : No<br>
Color range : Limited<br>
Color primaries : BT.2020<br>
Transfer characteristics : HLG<br>
Matrix coefficients : BT.2020 non-constant<br>
<br>
Audio<br>
ID : 2<br>
Format : AC-3<br>
Format/Info : Audio Coding 3<br>
Commercial name : Dolby Digital<br>
Codec ID : A_AC3<br>
Duration : 4 min 42 s<br>
Bit rate mode : Constant<br>
Bit rate : 384 kb/s<br>
Channel(s) : 6 channels<br>
Channel layout : L R C LFE Ls Rs<br>
Sampling rate : 48.0 kHz<br>
Frame rate : 31.250 FPS (1536 SPF)<br>
Bit depth : 32 bits<br>
Compression mode : Lossy<br>
Delay relative to video : -900 ms<br>
Stream size : 12.9 MiB (3%)<br>
Service kind : Complete Main<br>
Default : No<br>
Forced : No<br>
Dialog Normalization : -24 dB<br>
compr : -0.28 dB<br>
cmixlev : -3.0 dB<br>
surmixlev : -3 dB<br>
mixlevel : 285 dB<br>
roomtyp : 3<br>
ltrtcmixlev : -3.0 dB<br>
ltrtsurmixlev : -3.0 dB<br>
lorocmixlev : -3.0 dB<br>
lorosurmixlev : -4.5 dB<br>
dialnorm_Average : -24 dB<br>
dialnorm_Minimum : -24 dB<br>
dialnorm_Maximum : -24 dB</div>
</div><br>
<div class="bbCodeBlock bbCodeVfcHH HiddenContent">
<div class="attribution type">Hidden Content:</div>
<blockquote>You must reply before you can see the hidden data contained here.</blockquote>
</div><img src="https://coast.aaronsouth.com/azamusic/ja_paris2024.jpg" class="bbCodeImage LbImage" alt="[​IMG]" data-url="https://coast.aaronsouth.com/azamusic/ja_paris2024.jpg" style="">
<div class="messageTextEndMarker">&nbsp;</div>
</blockquote>
</article>]]></description>
                <author><![CDATA[azamusic]]></author>
                </item>

                
                <item>
                <title><![CDATA[【SD】DVD - Pokemon TVアニメ主題歌ソング集 1997-2004 [China Edition] Creditless]]></title>
                <link><![CDATA[https://sharemania.us/threads/pokemon-tv%E3%82%A2%E3%83%8B%E3%83%A1%E4%B8%BB%E9%A1%8C%E6%AD%8C%E3%82%BD%E3%83%B3%E3%82%B0%E9%9B%86-1997-2004-china-edition-creditless.251389/]]></link>
                <description><![CDATA[<article>
<blockquote class="messageText SelectQuoteContainer ugc baseHtml">
<b><span style="color: #ff0000">*</span>Broken File</b><br>
<img src="https://www.imgbly.com/ib/rVnETT2lr5.jpg" class="bbCodeImage LbImage" alt="[​IMG]" data-url="https://www.imgbly.com/ib/rVnETT2lr5.jpg" style=""><br>
<br>
<a href="https://www.discogs.com/release/16712253-Various-%E3%83%9D%E3%82%B1%E3%83%83%E3%83%88%E3%83%A2%E3%83%B3%E3%82%B9%E3%82%BF%E3%83%BCTV%E4%B8%BB%E9%A1%8C%E6%AD%8C%E9%9B%86DVD%E3%83%91%E3%83%BC%E3%83%95%E3%82%A7%E3%82%AF%E3%83%88%E3%83%99%E3%82%B9%E3%83%88-1997-2004" target="_blank" class="externalLink" rel="nofollow">ポケットモンスターTV主題歌集DVDパーフェクトベスト 1997-2004 (2004, DVD) - Discogs</a><br>
<div class="ToggleTriggerAnchor bbCodeSpoilerContainer">
<button type="button" class="button bbCodeSpoilerButton ToggleTrigger Tooltip JsOnly" data-target="> .SpoilerTarget"><span>Spoiler: <span class="SpoilerTitle">list</span></span></button>
<div class="SpoilerTarget bbCodeSpoilerText">1 <a href="https://www.discogs.com/artist/2741248-Rica-Matsumoto" target="_blank" class="externalLink" rel="nofollow">松本梨香</a>*– めざせポケモンマスター<br>
2 <a href="https://www.discogs.com/artist/8482449-%E3%82%AA%E3%83%BC%E3%82%AD%E3%83%89%E5%8D%9A%E5%A3%AB%E3%81%A8%E3%83%9D%E3%82%B1%E3%83%A2%E3%83%B3%E3%82%AD%E3%83%83%E3%82%BA" target="_blank" class="externalLink" rel="nofollow">オーキド博士とポケモンキッズ</a>– ひゃくごじゅういち<br>
3 <a href="https://www.discogs.com/artist/7195894-%E3%82%AC%E3%83%AB%E3%83%BC%E3%83%A9%E5%B0%8F%E6%9E%97" target="_blank" class="externalLink" rel="nofollow">ガルーラ小林</a>– ポケモン音頭<br>
4 <a href="https://www.discogs.com/artist/2741252-Meowth" target="_blank" class="externalLink" rel="nofollow">ニャース(犬山犬子)</a>*– ニャースのうた<br>
5 <a href="https://www.discogs.com/artist/8482455-%E3%81%95%E3%81%A1%E3%81%98%E3%82%85%E3%82%8A" target="_blank" class="externalLink" rel="nofollow">さち&amp;じゅり</a>– ポケットにファンタジー<br>
6 <a href="https://www.discogs.com/artist/2741248-Rica-Matsumoto" target="_blank" class="externalLink" rel="nofollow">松本梨香</a>*– タイプ・ワイルド<br>
7 <a href="https://www.discogs.com/artist/2741248-Rica-Matsumoto" target="_blank" class="externalLink" rel="nofollow">松本梨香</a>*– ライバル!<br>
8 <a href="https://www.discogs.com/artist/7107462-%E3%82%AB%E3%82%B9%E3%83%9F" target="_blank" class="externalLink" rel="nofollow">カスミ</a>– ラプラスにのって<br>
9 <a href="https://www.discogs.com/artist/2741248-Rica-Matsumoto" target="_blank" class="externalLink" rel="nofollow">松本梨香</a>*– OK!<br>
10 <a href="https://www.discogs.com/artist/2741252-Meowth" target="_blank" class="externalLink" rel="nofollow">ニャース(犬山犬子)</a>*– ニャースのパーティ<br>
11 <a href="https://www.discogs.com/artist/8482458-%E6%84%9B%E6%B2%B3%E9%87%8C%E8%8A%B1%E5%AD%90" target="_blank" class="externalLink" rel="nofollow">愛河里花子</a>– ポケモンはらはらリレー<br>
12 <a href="https://www.discogs.com/artist/8482461-%E3%82%BF%E3%82%B1%E3%82%B7%E4%B8%8A%E7%94%B0%E7%A5%90%E5%8F%B8" target="_blank" class="externalLink" rel="nofollow">タケシ(上田祐司)</a>– タケシのパラダイス<br>
13 <a href="https://www.discogs.com/artist/1826046-Hiromi-Iwasaki" target="_blank" class="externalLink" rel="nofollow">岩崎宏美</a>*– ぼくのベストフレンドへ<br>
14 <a href="https://www.discogs.com/artist/1310818-Whiteberry" target="_blank" class="externalLink" rel="nofollow">Whiteberry</a>– めざせポケモンマスター<br>
15 <a href="https://www.discogs.com/artist/8482464-%E3%83%AD%E3%82%B1%E3%83%83%E3%83%88%E5%9B%A3" target="_blank" class="externalLink" rel="nofollow">ロケット団</a>– 前向きロケット団!<br>
16 <a href="https://www.discogs.com/artist/1542381-Naomi-Tamura" target="_blank" class="externalLink" rel="nofollow">田村直美</a>*– Ready Go!<br>
17 <a href="https://www.discogs.com/artist/8482467-%E5%8F%AF%E5%90%8D" target="_blank" class="externalLink" rel="nofollow">可名</a>– ポケッターリ モンスターリ<br>
18 <a href="https://www.discogs.com/artist/2666250-Garden-7" target="_blank" class="externalLink" rel="nofollow">Garden (7)</a>– アドバンス・アドベンチャー<br>
19 <a href="https://www.discogs.com/artist/8482470-%E6%B1%9F%E5%B4%8E%E3%81%A8%E3%81%97%E5%AD%90" target="_blank" class="externalLink" rel="nofollow">江崎とし子</a>– そこに空があるから<br>
20 <a href="https://www.discogs.com/artist/2741252-Meowth" target="_blank" class="externalLink" rel="nofollow">ニャース(犬山犬子)</a>* &amp; <a href="https://www.discogs.com/artist/8492523-%E3%83%8E%E3%83%AB%E3%82%BD%E3%83%AB%E5%90%88%E5%94%B1%E5%9B%A3" target="_blank" class="externalLink" rel="nofollow">ノルソル合唱団</a>– ポルカ・オ・ドルカ<br>
21 <a href="https://www.discogs.com/artist/2741248-Rica-Matsumoto" target="_blank" class="externalLink" rel="nofollow">松本梨香</a>*– チャレンジャー!!<br>
22 <a href="https://www.discogs.com/artist/8482470-%E6%B1%9F%E5%B4%8E%E3%81%A8%E3%81%97%E5%AD%90" target="_blank" class="externalLink" rel="nofollow">江崎とし子</a>– スマイル<br>
23 <a href="https://www.discogs.com/artist/6840219-%E7%94%B0%E6%9D%91%E7%9B%B4%E7%BE%8E" target="_blank" class="externalLink" rel="nofollow">田村直美</a>– いっぱいサマー!!<br>
24 <a href="https://www.discogs.com/artist/2666250-Garden-7" target="_blank" class="externalLink" rel="nofollow">Garden (7)</a>– Glory Day～輝くその日～</div>
</div>
<div class="ToggleTriggerAnchor bbCodeSpoilerContainer">
<button type="button" class="button bbCodeSpoilerButton ToggleTrigger Tooltip JsOnly" data-target="> .SpoilerTarget"><span>Spoiler: <span class="SpoilerTitle">info</span></span></button>
<div class="SpoilerTarget bbCodeSpoilerText">General<br>
Complete name : E:\Mixed File.mp4<br>
Format : MPEG-4<br>
Format profile : Base Media<br>
Codec ID : isom (isom/avc1)<br>
File size : 922 MiB<br>
Duration : 34 min 7 s<br>
Overall bit rate : 3 779 kb/s<br>
Encoded date : UTC 2024-07-29 09:10:15<br>
Tagged date : UTC 2024-07-29 09:10:15<br>
IsTruncated : Yes<br>
<br>
Video<br>
ID : 1<br>
Format : AVC<br>
Format/Info : Advanced Video Codec<br>
Format profile : High@L3<br>
Format settings : CABAC / 6 Ref Frames<br>
Format settings, CABAC : Yes<br>
Format settings, Reference frames : 6 frames<br>
Codec ID : avc1<br>
Codec ID/Info : Advanced Video Coding<br>
Duration : 34 min 7 s<br>
Bit rate : 4 872 kb/s<br>
Maximum bit rate : 17.2 Mb/s<br>
Width : 720 pixels<br>
Height : 480 pixels<br>
Display aspect ratio : 4:3<br>
Original display aspect ratio : 4:3<br>
Frame rate mode : Constant<br>
Frame rate : 29.970 (29970/1000) FPS<br>
Original frame rate : 29.970 (30000/1001) FPS<br>
Standard : NTSC<br>
Color space : YUV<br>
Chroma subsampling : 4:2:0<br>
Bit depth : 8 bits<br>
Scan type : Progressive<br>
Bits/(Pixel*Frame) : 0.470<br>
Stream size : 1.16 GiB<br>
Writing library : x264 core 161 r3033 0d754ec<br>
Encoding settings : cabac=1 / ref=6 / deblock=1:1:1 / analyse=0x3:0x113 / me=hex / subme=7 / psy=1 / psy_rd=0.40:0.00 / mixed_ref=1 / me_range=16 / chroma_me=1 / trellis=1 / 8x8dct=1 / cqm=0 / deadzone=21,11 / fast_pskip=1 / chroma_qp_offset=-2 / threads=6 / lookahead_threads=1 / sliced_threads=0 / nr=0 / decimate=1 / interlaced=0 / bluray_compat=0 / constrained_intra=0 / bframes=5 / b_pyramid=2 / b_adapt=1 / b_bias=0 / direct=1 / weightb=1 / open_gop=0 / weightp=2 / keyint=300 / keyint_min=29 / scenecut=40 / intra_refresh=0 / rc_lookahead=40 / rc=2pass / mbtree=1 / bitrate=4872 / ratetol=1.0 / qcomp=0.60 / qpmin=0 / qpmax=69 / qpstep=4 / cplxblur=20.0 / qblur=0.5 / ip_ratio=1.40 / aq=1:0.60<br>
Encoded date : UTC 2024-07-29 09:10:15<br>
Tagged date : UTC 2024-07-29 09:10:54<br>
Codec configuration box : avcC<br>
<br>
Audio<br>
ID : 2<br>
Format : MPEG Audio<br>
Format version : Version 1<br>
Format profile : Layer 2<br>
Codec ID : .mp3<br>
Duration : 34 min 4 s<br>
Bit rate mode : Constant<br>
Bit rate : 128 kb/s<br>
Maximum bit rate : 132 kb/s<br>
Channel(s) : 2 channels<br>
Sampling rate : 48.0 kHz<br>
Compression mode : Lossy<br>
Stream size : 31.2 MiB (3%)<br>
Encoded date : UTC 2024-07-29 09:10:53<br>
Tagged date : UTC 2024-07-29 09:10:54</div>
</div><br>
<br>
<div class="bbCodeBlock bbCodeVfcHH HiddenContent">
<div class="attribution type">Hidden Content:</div>
<blockquote>You must reply before you can see the hidden data contained here.</blockquote>
</div>
<div class="messageTextEndMarker">&nbsp;</div>
</blockquote>
</article>]]></description>
                <author><![CDATA[unknown8YThu]]></author>
                </item>

                
                <item>
                <title><![CDATA[【Requests】[REQ CAP] - 80s, 90s &amp; 00s MVS from French/German Channels]]></title>
                <link><![CDATA[https://sharemania.us/threads/80s-90s-00s-mvs-from-french-german-channels.251387/]]></link>
                <description><![CDATA[<article>
<blockquote class="messageText SelectQuoteContainer ugc baseHtml">
<span style="color: #ff0000"><span style="font-family: 'Verdana'"><span style="font-size: 26px"><b>Ayúdenme por favor!!</b></span></span></span><br>
<span style="font-family: 'Arial'"><b><span style="color: #4d4dff">I give you my </span><span style="color: #4da6ff">c</span><span style="color: #b3b300">ol</span><span style="color: #ff8000">or</span><span style="color: #ff4d4d">ful</span> <span style="color: #808080">balloons</span></b></span><br>
<br>
<img src="https://64.media.tumblr.com/700b7eed1ff9ca06f343778d12b6ce90/tumblr_oz2qi5DbIq1svi3flo1_500.gifv" class="bbCodeImage LbImage" alt="[​IMG]" data-url="https://64.media.tumblr.com/700b7eed1ff9ca06f343778d12b6ce90/tumblr_oz2qi5DbIq1svi3flo1_500.gifv" style=""> <br>
<br>
<span style="font-family: 'Tahoma'"><span style="color: #663300">
<div class="bbCodeBlock bbCodeCode">
<div class="type">Code:</div>
<pre>LOOKING FOR:
Happy Birthday Jason Donovan! MTV 90s SDTV 576i.ts mpg mkv
Kylie Minogue - Put Youself in my place, 1080i upscale/576i-720p (not NRJ Hits, vob)
</pre>
</div></span><br>
</span><br>
A special request, almost begging... if you have any of these channels, PLEASE, could you record random specials of music videos from the 80s, 90s and 00s?<br>
<br>
Thanks in advance.<br>
<br>
<b><span style="font-family: 'Tahoma'"><span style="font-size: 18px"><span style="color: #660066">M6 MUSIC</span></span></span><br>
<span style="font-family: 'Arial'"><span style="font-size: 15px"><span style="color: #b300b3">DIMANCHE 04 AOÛT<br>
DIMANCHE 11 AOÛT<br>
DIMANCHE 18 AOÛT<br>
DIMANCHE 25 AOÛT</span></span></span></b><br>
<ul>
<li>Back to the 80's [00h00]</li>
<li>Back to the 90's [01h00]</li>
<li>Back to 2000 [02h00]</li>
</ul><b><span style="font-family: 'Tahoma'"><span style="font-size: 18px"><span style="color: #660066">W9</span></span></span></b><br>
<ul>
<li><span style="color: #404040">Hits Gold [Mondays? 10h30]</span></li>
</ul><span style="font-family: 'Tahoma'"><span style="font-size: 18px"><span style="color: #660066"><b>MTV GERMANY</b></span></span></span><br>
<b><span style="font-family: 'Tahoma'"><span style="font-size: 18px"><span style="color: #660066">DELUXE MUSIC</span></span></span></b><br>
<span style="font-family: 'Tahoma'"><span style="font-size: 18px"><span style="color: #660066"><b><b>ABC RAGE/</b>RAGE (Jason Donovan _ 576i, 720p50fps, 1080i)</b></span></span></span>
<div class="messageTextEndMarker">&nbsp;</div>
</blockquote>
</article>]]></description>
                <author><![CDATA[SCANDAL]]></author>
                </item>

                </channel></rss>